Normalized EMG Linear Envelopes
nRows=38
nColumns=17

endheader
time	        VM	        VL	        RF	       GRA	        TA	   ADDLONG	   SEMIMEM	      BFLH	        GM	        GL	       TFL	   GLUTMAX	   GLUTMED	      PIRI	    OBTINT	        QF	
2.4975	  0.122508	  0.120393	  0.193860	  0.094974	  0.199890	  0.151571	  0.087371	  0.038306	  0.011178	  0.009068	  0.746316	  0.085618	  0.379143	  0.195784	  0.105985	  0.091368	
2.498	  0.124596	  0.122262	  0.190892	  0.095782	  0.196738	  0.151823	  0.089251	  0.039275	  0.011169	  0.009118	  0.752149	  0.086602	  0.380578	  0.196615	  0.107058	  0.092191	
2.4985	  0.126693	  0.124133	  0.187942	  0.096621	  0.193584	  0.152020	  0.091157	  0.040271	  0.011161	  0.009170	  0.757920	  0.087611	  0.381927	  0.197405	  0.108123	  0.093013	
2.499	  0.128798	  0.126005	  0.185011	  0.097490	  0.190429	  0.152162	  0.093087	  0.041295	  0.011154	  0.009225	  0.763629	  0.088645	  0.383191	  0.198155	  0.109180	  0.093835	
2.4995	  0.130910	  0.127875	  0.182100	  0.098390	  0.187276	  0.152250	  0.095041	  0.042347	  0.011148	  0.009282	  0.769272	  0.089703	  0.384372	  0.198864	  0.110227	  0.094656	
2.5	  0.133028	  0.129743	  0.179209	  0.099319	  0.184124	  0.152283	  0.097020	  0.043426	  0.011143	  0.009341	  0.774849	  0.090787	  0.385471	  0.199530	  0.111264	  0.095476	
2.5005	  0.135152	  0.131609	  0.176340	  0.100278	  0.180975	  0.152264	  0.099023	  0.044533	  0.011140	  0.009403	  0.780359	  0.091896	  0.386490	  0.200153	  0.112291	  0.096295	
2.501	  0.137280	  0.133471	  0.173493	  0.101265	  0.177832	  0.152191	  0.101048	  0.045669	  0.011137	  0.009467	  0.785799	  0.093031	  0.387430	  0.200734	  0.113307	  0.097111	
2.5015	  0.139412	  0.135328	  0.170670	  0.102281	  0.174694	  0.152068	  0.103097	  0.046833	  0.011137	  0.009533	  0.791168	  0.094192	  0.388293	  0.201270	  0.114311	  0.097925	
2.502	  0.141546	  0.137179	  0.167871	  0.103324	  0.171563	  0.151895	  0.105168	  0.048025	  0.011137	  0.009602	  0.796464	  0.095378	  0.389081	  0.201762	  0.115303	  0.098736	
2.5025	  0.143681	  0.139023	  0.165096	  0.104395	  0.168441	  0.151674	  0.107262	  0.049245	  0.011139	  0.009673	  0.801687	  0.096590	  0.389794	  0.202210	  0.116282	  0.099543	
2.503	  0.145818	  0.140859	  0.162347	  0.105493	  0.165329	  0.151406	  0.109377	  0.050494	  0.011143	  0.009747	  0.806833	  0.097829	  0.390436	  0.202615	  0.117247	  0.100346	
2.5035	  0.147954	  0.142687	  0.159624	  0.106616	  0.162227	  0.151093	  0.111513	  0.051772	  0.011148	  0.009823	  0.811901	  0.099094	  0.391007	  0.202975	  0.118198	  0.101146	
2.504	  0.150089	  0.144504	  0.156928	  0.107766	  0.159138	  0.150737	  0.113670	  0.053079	  0.011155	  0.009902	  0.816889	  0.100385	  0.391509	  0.203293	  0.119134	  0.101940	
2.5045	  0.152223	  0.146311	  0.154259	  0.108940	  0.156062	  0.150340	  0.115847	  0.054414	  0.011164	  0.009983	  0.821793	  0.101702	  0.391945	  0.203569	  0.120054	  0.102729	
2.505	  0.154353	  0.148105	  0.151619	  0.110139	  0.153000	  0.149902	  0.118043	  0.055778	  0.011175	  0.010066	  0.826611	  0.103046	  0.392314	  0.203805	  0.120956	  0.103513	
2.5055	  0.156479	  0.149887	  0.149007	  0.111361	  0.149954	  0.149427	  0.120259	  0.057172	  0.011188	  0.010152	  0.831340	  0.104417	  0.392620	  0.204000	  0.121842	  0.104290	
2.506	  0.158600	  0.151654	  0.146424	  0.112607	  0.146925	  0.148915	  0.122494	  0.058594	  0.011203	  0.010241	  0.835978	  0.105814	  0.392864	  0.204157	  0.122709	  0.105061	
2.5065	  0.160715	  0.153406	  0.143871	  0.113876	  0.143914	  0.148368	  0.124746	  0.060045	  0.011220	  0.010332	  0.840520	  0.107237	  0.393047	  0.204275	  0.123557	  0.105824	
2.507	  0.162823	  0.155141	  0.141348	  0.115166	  0.140922	  0.147788	  0.127017	  0.061526	  0.011240	  0.010425	  0.844964	  0.108687	  0.393172	  0.204356	  0.124386	  0.106580	
2.5075	  0.164924	  0.156859	  0.138855	  0.116478	  0.137950	  0.147175	  0.129304	  0.063036	  0.011262	  0.010521	  0.849307	  0.110163	  0.393240	  0.204401	  0.125194	  0.107327	
2.508	  0.167016	  0.158558	  0.136394	  0.117811	  0.135000	  0.146533	  0.131608	  0.064576	  0.011287	  0.010619	  0.853544	  0.111666	  0.393252	  0.204411	  0.125981	  0.108065	
2.5085	  0.169098	  0.160238	  0.133963	  0.119165	  0.132073	  0.145861	  0.133929	  0.066145	  0.011315	  0.010720	  0.857671	  0.113195	  0.393211	  0.204386	  0.126746	  0.108794	
2.509	  0.171170	  0.161896	  0.131564	  0.120538	  0.129169	  0.145162	  0.136265	  0.067744	  0.011345	  0.010824	  0.861685	  0.114750	  0.393118	  0.204328	  0.127489	  0.109512	
2.5095	  0.173230	  0.163533	  0.129197	  0.121930	  0.126290	  0.144437	  0.138616	  0.069373	  0.011379	  0.010930	  0.865580	  0.116331	  0.392975	  0.204238	  0.128209	  0.110220	
2.51	  0.175278	  0.165147	  0.126861	  0.123342	  0.123437	  0.143687	  0.140982	  0.071032	  0.011416	  0.011038	  0.869353	  0.117939	  0.392783	  0.204116	  0.128905	  0.110917	
2.5105	  0.177312	  0.166737	  0.124558	  0.124772	  0.120611	  0.142913	  0.143362	  0.072721	  0.011456	  0.011149	  0.872999	  0.119571	  0.392545	  0.203964	  0.129577	  0.111601	
2.511	  0.179333	  0.168302	  0.122288	  0.126220	  0.117813	  0.142117	  0.145756	  0.074439	  0.011500	  0.011262	  0.876513	  0.121230	  0.392261	  0.203782	  0.130224	  0.112274	
2.5115	  0.181338	  0.169841	  0.120050	  0.127685	  0.115044	  0.141300	  0.148162	  0.076188	  0.011548	  0.011378	  0.879890	  0.122914	  0.391934	  0.203572	  0.130845	  0.112934	
2.512	  0.183327	  0.171354	  0.117846	  0.129166	  0.112305	  0.140464	  0.150581	  0.077968	  0.011599	  0.011496	  0.883124	  0.124623	  0.391565	  0.203336	  0.131440	  0.113582	
2.5125	  0.185299	  0.172839	  0.115675	  0.130664	  0.109598	  0.139609	  0.153011	  0.079777	  0.011655	  0.011617	  0.886213	  0.126358	  0.391157	  0.203073	  0.132008	  0.114216	
2.513	  0.187254	  0.174296	  0.113537	  0.132177	  0.106922	  0.138737	  0.155452	  0.081618	  0.011715	  0.011740	  0.889149	  0.128117	  0.390710	  0.202785	  0.132548	  0.114836	
2.5135	  0.189190	  0.175722	  0.111432	  0.133705	  0.104279	  0.137849	  0.157903	  0.083489	  0.011779	  0.011865	  0.891931	  0.129901	  0.390227	  0.202472	  0.133061	  0.115443	
2.514	  0.191107	  0.177118	  0.109361	  0.135247	  0.101670	  0.136946	  0.160362	  0.085390	  0.011848	  0.011993	  0.894552	  0.131709	  0.389709	  0.202137	  0.133546	  0.116035	
2.5145	  0.193005	  0.178483	  0.107323	  0.136803	  0.099096	  0.136030	  0.162830	  0.087323	  0.011921	  0.012123	  0.897008	  0.133541	  0.389157	  0.201779	  0.134002	  0.116612	
2.515	  0.194881	  0.179814	  0.105319	  0.138371	  0.096558	  0.135101	  0.165306	  0.089286	  0.012000	  0.012256	  0.899297	  0.135396	  0.388575	  0.201400	  0.134429	  0.117175	
2.5155	  0.196735	  0.181112	  0.103348	  0.139952	  0.094056	  0.134161	  0.167787	  0.091280	  0.012083	  0.012391	  0.901413	  0.137274	  0.387963	  0.200999	  0.134827	  0.117722	
2.516	  0.198567	  0.182375	  0.101411	  0.141544	  0.091591	  0.133210	  0.170275	  0.093304	  0.012172	  0.012528	  0.903353	  0.139176	  0.387323	  0.200579	  0.135197	  0.118254	
